<?xml version='1.0' encoding='ascii'?>
<svg xmlns="http://www.w3.org/2000/svg" height="480" version="1.1" width="640">
    <g id="RenderLayer_LineSet" inkscape:groupmode="lineset" inkscape:label="RenderLayer_LineSet" xmlns:inkscape="http://www.inkscape.org/namespaces/inkscape">
        <g id="strokes" inkscape:groupmode="layer" inkscape:label="strokes" xmlns:inkscape="http://www.inkscape.org/namespaces/inkscape">
            <path d=" M 135.270, 213.578 144.545, 217.315 151.101, 219.957 " fill="none" stroke="rgb(0, 0, 0)" stroke-linecap="butt" stroke-linejoin="round" stroke-opacity="1.0" stroke-width="3.0" />
            <path d=" M 155.310, 170.097 151.124, 179.179 146.939, 188.261 142.753, 197.342 138.567, 206.424 135.270, 213.578 " fill="none" stroke="rgb(0, 0, 0)" stroke-linecap="butt" stroke-linejoin="round" stroke-opacity="1.0" stroke-width="3.0" />
            <path d=" M 169.122, 176.409 177.138, 170.429 185.153, 164.450 193.169, 158.471 201.185, 152.492 209.200, 146.513 214.306, 142.704 224.306, 142.823 234.305, 142.942 244.304, 143.061 254.303, 143.180 264.303, 143.299 274.302, 143.418 284.301, 143.537 288.242, 143.584 297.442, 147.502 306.643, 151.420 315.843, 155.337 325.044, 159.255 334.245, 163.173 343.445, 167.091 352.646, 171.009 361.846, 174.927 371.047, 178.845 381.020, 183.091 389.543, 188.322 398.066, 193.553 406.589, 198.783 415.112, 204.014 423.635, 209.245 432.158, 214.475 440.681, 219.706 449.204, 224.936 451.293, 226.219 458.992, 232.600 466.692, 238.981 474.391, 245.363 482.090, 251.744 489.789, 258.125 496.574, 263.749 502.263, 271.973 507.952, 280.197 513.641, 288.421 519.331, 296.645 521.005, 299.066 512.590, 304.469 504.175, 309.872 495.761, 315.274 493.712, 316.590 484.297, 319.961 474.882, 323.332 465.468, 326.702 456.053, 330.073 446.638, 333.444 438.395, 336.396 428.578, 338.297 418.760, 340.198 408.942, 342.099 399.125, 344.000 389.307, 345.902 379.490, 347.803 369.672, 349.704 367.400, 350.144 357.401, 350.259 347.402, 350.374 337.402, 350.490 327.403, 350.605 317.404, 350.720 307.404, 350.835 297.405, 350.950 286.921, 351.071 277.218, 348.652 267.515, 346.234 257.812, 343.815 248.109, 341.396 238.406, 338.977 228.703, 336.559 223.986, 335.383 215.387, 330.277 206.789, 325.171 198.191, 320.066 189.593, 314.960 182.776, 310.912 175.014, 304.608 167.251, 298.303 159.434, 291.955 157.053, 282.242 154.672, 272.530 153.298, 266.924 152.831, 256.935 152.363, 246.946 151.896, 236.957 151.429, 226.968 151.101, 219.957 154.924, 210.717 158.748, 201.477 162.572, 192.236 166.396, 182.996 169.122, 176.409 " fill="none" stroke="rgb(0, 0, 0)" stroke-linecap="butt" stroke-linejoin="round" stroke-opacity="1.0" stroke-width="3.0" />
            <path d=" M 214.306, 142.704 205.456, 138.048 201.175, 135.796 " fill="none" stroke="rgb(0, 0, 0)" stroke-linecap="butt" stroke-linejoin="round" stroke-opacity="1.0" stroke-width="3.0" />
            <path d=" M 281.080, 134.296 287.186, 142.215 288.242, 143.584 " fill="none" stroke="rgb(0, 0, 0)" stroke-linecap="butt" stroke-linejoin="round" stroke-opacity="1.0" stroke-width="3.0" />
            <path d=" M 451.293, 226.219 458.439, 222.051 " fill="none" stroke="rgb(0, 0, 0)" stroke-linecap="butt" stroke-linejoin="round" stroke-opacity="1.0" stroke-width="3.0" />
            <path d=" M 458.439, 222.051 449.951, 216.763 441.463, 211.476 432.975, 206.189 424.487, 200.901 415.999, 195.614 407.511, 190.327 399.024, 185.039 390.536, 179.752 384.098, 175.742 " fill="none" stroke="rgb(0, 0, 0)" stroke-linecap="butt" stroke-linejoin="round" stroke-opacity="1.0" stroke-width="3.0" />
            <path d=" M 384.098, 175.742 381.020, 183.091 " fill="none" stroke="rgb(0, 0, 0)" stroke-linecap="butt" stroke-linejoin="round" stroke-opacity="1.0" stroke-width="3.0" />
            <path d=" M 367.400, 350.144 368.551, 360.078 369.012, 364.059 " fill="none" stroke="rgb(0, 0, 0)" stroke-linecap="butt" stroke-linejoin="round" stroke-opacity="1.0" stroke-width="3.0" />
            <path d=" M 280.896, 363.795 290.896, 363.825 300.895, 363.855 310.895, 363.885 320.895, 363.915 330.895, 363.945 340.895, 363.975 350.895, 364.005 360.895, 364.035 369.012, 364.059 " fill="none" stroke="rgb(0, 0, 0)" stroke-linecap="butt" stroke-linejoin="round" stroke-opacity="1.0" stroke-width="3.0" />
            <path d=" M 280.896, 363.795 285.176, 354.757 286.921, 351.071 " fill="none" stroke="rgb(0, 0, 0)" stroke-linecap="butt" stroke-linejoin="round" stroke-opacity="1.0" stroke-width="3.0" />
            <path d=" M 214.012, 345.821 223.670, 348.416 233.327, 351.011 242.984, 353.607 252.642, 356.202 262.299, 358.797 271.956, 361.392 280.896, 363.795 280.415, 373.783 279.935, 383.772 279.455, 393.760 278.975, 403.748 278.776, 407.891 " fill="none" stroke="rgb(0, 0, 0)" stroke-linecap="butt" stroke-linejoin="round" stroke-opacity="1.0" stroke-width="3.0" />
            <path d=" M 182.776, 310.912 174.687, 316.792 170.810, 319.610 " fill="none" stroke="rgb(0, 0, 0)" stroke-linecap="butt" stroke-linejoin="round" stroke-opacity="1.0" stroke-width="3.0" />
            <path d=" M 170.810, 319.610 179.360, 324.797 187.909, 329.984 196.459, 335.171 205.008, 340.358 213.558, 345.545 214.012, 345.821 " fill="none" stroke="rgb(0, 0, 0)" stroke-linecap="butt" stroke-linejoin="round" stroke-opacity="1.0" stroke-width="3.0" />
            <path d=" M 127.795, 289.025 137.752, 289.947 147.709, 290.869 157.667, 291.791 159.434, 291.955 151.301, 297.773 146.028, 301.544 " fill="none" stroke="rgb(0, 0, 0)" stroke-linecap="butt" stroke-linejoin="round" stroke-opacity="1.0" stroke-width="3.0" />
            <path d=" M 151.101, 219.957 144.347, 227.331 137.593, 234.706 130.839, 242.081 127.208, 246.046 " fill="none" stroke="rgb(0, 0, 0)" stroke-linecap="butt" stroke-linejoin="round" stroke-opacity="1.0" stroke-width="3.0" />
            <path d=" M 127.208, 246.046 118.822, 251.493 110.436, 256.941 102.049, 262.388 98.978, 264.383 " fill="none" stroke="rgb(0, 0, 0)" stroke-linecap="butt" stroke-linejoin="round" stroke-opacity="1.0" stroke-width="3.0" />
            <path d=" M 131.204, 271.170 129.633, 261.294 128.062, 251.419 127.208, 246.046 118.648, 240.875 114.876, 238.596 " fill="none" stroke="rgb(0, 0, 0)" stroke-linecap="butt" stroke-linejoin="round" stroke-opacity="1.0" stroke-width="3.0" />
            <path d=" M 116.547, 296.598 126.409, 298.253 136.271, 299.907 146.028, 301.544 " fill="none" stroke="rgb(0, 0, 0)" stroke-linecap="butt" stroke-linejoin="round" stroke-opacity="1.0" stroke-width="3.0" />
            <path d=" M 131.204, 271.170 121.310, 272.623 111.416, 274.076 105.045, 275.012 " fill="none" stroke="rgb(0, 0, 0)" stroke-linecap="butt" stroke-linejoin="round" stroke-opacity="1.0" stroke-width="3.0" />
            <path d=" M 127.795, 289.025 129.670, 279.202 131.204, 271.170 141.024, 269.283 150.845, 267.395 153.298, 266.924 " fill="none" stroke="rgb(0, 0, 0)" stroke-linecap="butt" stroke-linejoin="round" stroke-opacity="1.0" stroke-width="3.0" />
            <path d=" M 116.547, 296.598 124.842, 291.013 127.795, 289.025 117.968, 287.170 108.142, 285.316 98.315, 283.461 97.682, 283.341 " fill="none" stroke="rgb(0, 0, 0)" stroke-linecap="butt" stroke-linejoin="round" stroke-opacity="1.0" stroke-width="3.0" />
            <path d=" M 93.002, 278.262 83.004, 278.437 80.843, 278.474 70.847, 278.735 66.998, 278.835 " fill="none" stroke="rgb(0, 0, 0)" stroke-linecap="butt" stroke-linejoin="round" stroke-opacity="1.0" stroke-width="3.0" />
            <path d=" M 87.856, 260.166 84.279, 269.504 80.843, 278.474 85.160, 287.495 85.671, 288.562 " fill="none" stroke="rgb(0, 0, 0)" stroke-linecap="butt" stroke-linejoin="round" stroke-opacity="1.0" stroke-width="3.0" />
            <path d=" M 98.978, 264.383 89.628, 260.838 87.856, 260.166 " fill="none" stroke="rgb(0, 0, 0)" stroke-linecap="butt" stroke-linejoin="round" stroke-opacity="1.0" stroke-width="3.0" />
            <path d=" M 85.671, 288.562 94.842, 284.576 97.682, 283.341 104.305, 275.849 105.045, 275.012 100.088, 266.327 98.978, 264.383 95.023, 273.568 93.002, 278.262 97.682, 283.341 " fill="none" stroke="rgb(0, 0, 0)" stroke-linecap="butt" stroke-linejoin="round" stroke-opacity="1.0" stroke-width="3.0" />
            <path d=" M 114.876, 238.596 107.061, 244.835 99.246, 251.074 91.431, 257.313 87.856, 260.166 78.169, 257.686 74.447, 256.734 " fill="none" stroke="rgb(0, 0, 0)" stroke-linecap="butt" stroke-linejoin="round" stroke-opacity="1.0" stroke-width="3.0" />
            <path d=" M 119.089, 200.588 126.887, 206.848 134.685, 213.108 135.270, 213.578 128.951, 221.329 122.633, 229.080 116.314, 236.831 114.876, 238.596 106.257, 233.525 98.792, 229.133 " fill="none" stroke="rgb(0, 0, 0)" stroke-linecap="butt" stroke-linejoin="round" stroke-opacity="1.0" stroke-width="3.0" />
            <path d=" M 175.551, 111.608 185.551, 111.559 187.426, 111.550 197.426, 111.501 207.426, 111.452 217.425, 111.403 227.425, 111.354 237.425, 111.305 247.425, 111.256 257.425, 111.206 267.425, 111.157 274.868, 111.121 " fill="none" stroke="rgb(0, 0, 0)" stroke-linecap="butt" stroke-linejoin="round" stroke-opacity="1.0" stroke-width="3.0" />
            <path d=" M 276.034, 117.432 277.277, 111.739 " fill="none" stroke="rgb(0, 0, 0)" stroke-linecap="butt" stroke-linejoin="round" stroke-opacity="1.0" stroke-width="3.0" />
            <path d=" M 201.175, 135.796 211.174, 135.608 221.172, 135.421 231.170, 135.233 241.168, 135.045 251.167, 134.857 261.165, 134.670 271.163, 134.482 281.080, 134.296 " fill="none" stroke="rgb(0, 0, 0)" stroke-linecap="butt" stroke-linejoin="round" stroke-opacity="1.0" stroke-width="3.0" />
            <path d=" M 390.748, 158.010 387.237, 167.373 384.098, 175.742 374.821, 172.009 365.543, 168.277 356.266, 164.545 346.989, 160.812 337.711, 157.080 328.434, 153.347 319.157, 149.615 309.879, 145.882 300.602, 142.150 291.325, 138.417 281.080, 134.296 278.214, 124.715 276.034, 117.432 " fill="none" stroke="rgb(0, 0, 0)" stroke-linecap="butt" stroke-linejoin="round" stroke-opacity="1.0" stroke-width="3.0" />
            <path d=" M 390.748, 158.010 397.079, 150.270 402.349, 143.828 " fill="none" stroke="rgb(0, 0, 0)" stroke-linecap="butt" stroke-linejoin="round" stroke-opacity="1.0" stroke-width="3.0" />
            <path d=" M 276.034, 117.432 285.462, 120.766 294.889, 124.101 304.317, 127.436 313.744, 130.771 323.172, 134.106 332.600, 137.441 342.027, 140.776 351.455, 144.111 360.882, 147.445 370.310, 150.780 379.737, 154.115 389.165, 157.450 390.748, 158.010 " fill="none" stroke="rgb(0, 0, 0)" stroke-linecap="butt" stroke-linejoin="round" stroke-opacity="1.0" stroke-width="3.0" />
            <path d=" M 497.161, 192.717 488.273, 188.134 479.385, 183.551 470.497, 178.968 461.609, 174.385 452.721, 169.802 443.833, 165.219 434.945, 160.636 426.057, 156.053 417.169, 151.470 408.281, 146.887 402.349, 143.828 411.368, 143.680 " fill="none" stroke="rgb(0, 0, 0)" stroke-linecap="butt" stroke-linejoin="round" stroke-opacity="1.0" stroke-width="3.0" />
            <path d=" M 411.368, 143.680 401.641, 141.360 391.913, 139.039 382.186, 136.719 372.459, 134.399 362.732, 132.079 361.415, 131.765 351.688, 129.444 341.960, 127.124 332.233, 124.804 322.506, 122.484 312.779, 120.164 303.052, 117.843 293.325, 115.523 283.598, 113.203 274.868, 111.121 272.036, 107.522 265.852, 99.663 260.463, 92.815 " fill="none" stroke="rgb(0, 0, 0)" stroke-linecap="butt" stroke-linejoin="round" stroke-opacity="1.0" stroke-width="3.0" />
            <path d=" M 497.161, 192.717 506.937, 190.616 516.714, 188.515 517.993, 188.240 " fill="none" stroke="rgb(0, 0, 0)" stroke-linecap="butt" stroke-linejoin="round" stroke-opacity="1.0" stroke-width="3.0" />
            <path d=" M 517.993, 188.240 508.767, 184.384 499.540, 180.528 490.313, 176.672 481.087, 172.816 471.860, 168.960 462.633, 165.104 453.406, 161.248 444.180, 157.392 434.953, 153.536 425.726, 149.681 416.500, 145.825 411.368, 143.680 413.939, 134.016 416.511, 124.352 417.255, 121.554 " fill="none" stroke="rgb(0, 0, 0)" stroke-linecap="butt" stroke-linejoin="round" stroke-opacity="1.0" stroke-width="3.0" />
            <path d=" M 474.327, 206.359 482.912, 201.230 491.496, 196.101 497.161, 192.717 505.009, 198.914 512.858, 205.111 520.706, 211.307 528.555, 217.504 536.404, 223.701 544.252, 229.898 552.101, 236.094 559.950, 242.291 563.765, 245.303 " fill="none" stroke="rgb(0, 0, 0)" stroke-linecap="butt" stroke-linejoin="round" stroke-opacity="1.0" stroke-width="3.0" />
            <path d=" M 390.748, 158.010 399.404, 163.017 408.060, 168.025 416.716, 173.032 425.372, 178.039 434.028, 183.047 442.684, 188.054 451.340, 193.061 459.996, 198.069 468.652, 203.076 474.327, 206.359 " fill="none" stroke="rgb(0, 0, 0)" stroke-linecap="butt" stroke-linejoin="round" stroke-opacity="1.0" stroke-width="3.0" />
            <path d=" M 508.319, 262.186 500.528, 255.917 492.737, 249.648 484.946, 243.379 477.155, 237.110 469.364, 230.841 461.573, 224.572 458.439, 222.051 465.554, 215.024 472.668, 207.997 474.327, 206.359 482.175, 212.556 490.024, 218.753 497.872, 224.950 505.720, 231.147 513.568, 237.345 521.417, 243.542 529.265, 249.739 533.023, 252.706 " fill="none" stroke="rgb(0, 0, 0)" stroke-linecap="butt" stroke-linejoin="round" stroke-opacity="1.0" stroke-width="3.0" />
            <path d=" M 390.140, 413.540 395.910, 421.707 401.681, 429.874 407.451, 438.041 413.222, 446.208 418.993, 454.375 424.663, 462.400 " fill="none" stroke="rgb(0, 0, 0)" stroke-linecap="butt" stroke-linejoin="round" stroke-opacity="1.0" stroke-width="3.0" />
            <path d=" M 492.468, 391.166 482.699, 393.302 472.930, 395.438 463.161, 397.574 453.391, 399.710 443.622, 401.846 433.853, 403.982 424.084, 406.118 414.315, 408.254 404.545, 410.390 394.776, 412.526 390.140, 413.540 " fill="none" stroke="rgb(0, 0, 0)" stroke-linecap="butt" stroke-linejoin="round" stroke-opacity="1.0" stroke-width="3.0" />
            <path d=" M 278.776, 407.891 288.763, 408.397 298.750, 408.904 308.737, 409.410 318.725, 409.917 328.712, 410.424 338.699, 410.930 348.686, 411.437 358.673, 411.943 368.660, 412.450 378.648, 412.957 388.635, 413.463 390.140, 413.540 386.213, 404.343 382.286, 395.146 378.359, 385.949 374.432, 376.753 370.505, 367.556 369.012, 364.059 378.813, 362.073 388.613, 360.086 398.414, 358.099 408.215, 356.112 418.015, 354.126 427.816, 352.139 437.617, 350.152 448.200, 348.007 " fill="none" stroke="rgb(0, 0, 0)" stroke-linecap="butt" stroke-linejoin="round" stroke-opacity="1.0" stroke-width="3.0" />
            <path d=" M 223.986, 335.383 217.077, 342.613 214.012, 345.821 210.827, 355.300 207.643, 364.780 204.458, 374.259 201.942, 381.748 " fill="none" stroke="rgb(0, 0, 0)" stroke-linecap="butt" stroke-linejoin="round" stroke-opacity="1.0" stroke-width="3.0" />
            <path d=" M 123.603, 329.831 129.816, 321.995 136.028, 314.159 142.240, 306.322 146.028, 301.544 154.109, 307.435 162.189, 313.326 170.270, 319.217 170.810, 319.610 166.405, 328.588 162.000, 337.565 157.594, 346.543 154.334, 353.187 " fill="none" stroke="rgb(0, 0, 0)" stroke-linecap="butt" stroke-linejoin="round" stroke-opacity="1.0" stroke-width="3.0" />
            <path d=" M 71.216, 294.752 80.408, 290.816 85.671, 288.562 95.349, 291.081 105.027, 293.600 114.704, 296.118 116.547, 296.598 108.858, 302.991 101.169, 309.385 96.511, 313.258 " fill="none" stroke="rgb(0, 0, 0)" stroke-linecap="butt" stroke-linejoin="round" stroke-opacity="1.0" stroke-width="3.0" />
            <path d=" M 96.511, 313.258 105.042, 318.476 113.572, 323.695 122.102, 328.913 123.603, 329.831 " fill="none" stroke="rgb(0, 0, 0)" stroke-linecap="butt" stroke-linejoin="round" stroke-opacity="1.0" stroke-width="3.0" />
            <path d=" M 71.216, 294.752 79.286, 300.657 87.357, 306.561 95.428, 312.465 96.511, 313.258 89.651, 320.534 82.791, 327.810 81.596, 329.077 " fill="none" stroke="rgb(0, 0, 0)" stroke-linecap="butt" stroke-linejoin="round" stroke-opacity="1.0" stroke-width="3.0" />
            <path d=" M 155.310, 170.097 163.318, 164.108 171.327, 158.119 179.335, 152.130 187.343, 146.141 195.351, 140.152 201.175, 135.796 195.349, 127.668 190.266, 120.576 " fill="none" stroke="rgb(0, 0, 0)" stroke-linecap="butt" stroke-linejoin="round" stroke-opacity="1.0" stroke-width="3.0" />
            <path d=" M 143.937, 156.892 151.807, 150.723 159.677, 144.554 167.547, 138.385 175.418, 132.215 183.288, 126.046 190.266, 120.576 " fill="none" stroke="rgb(0, 0, 0)" stroke-linecap="butt" stroke-linejoin="round" stroke-opacity="1.0" stroke-width="3.0" />
            <path d=" M 134.561, 148.337 141.948, 155.078 143.937, 156.892 " fill="none" stroke="rgb(0, 0, 0)" stroke-linecap="butt" stroke-linejoin="round" stroke-opacity="1.0" stroke-width="3.0" />
            <path d=" M 134.561, 148.337 142.682, 142.502 150.803, 136.667 158.924, 130.832 167.045, 124.997 175.166, 119.161 183.287, 113.326 185.642, 111.634 187.426, 111.550 " fill="none" stroke="rgb(0, 0, 0)" stroke-linecap="butt" stroke-linejoin="round" stroke-opacity="1.0" stroke-width="3.0" />
            <path d=" M 276.034, 117.432 266.041, 117.798 256.048, 118.164 246.054, 118.531 236.061, 118.897 226.068, 119.264 216.075, 119.630 206.081, 119.996 196.088, 120.363 190.266, 120.576 185.642, 111.634 175.551, 111.608 " fill="none" stroke="rgb(0, 0, 0)" stroke-linecap="butt" stroke-linejoin="round" stroke-opacity="1.0" stroke-width="3.0" />
            <path d=" M 104.824, 190.892 110.552, 182.695 116.280, 174.498 122.008, 166.301 127.737, 158.104 133.465, 149.907 134.561, 148.337 125.210, 144.794 120.469, 142.997 " fill="none" stroke="rgb(0, 0, 0)" stroke-linecap="butt" stroke-linejoin="round" stroke-opacity="1.0" stroke-width="3.0" />
            <path d=" M 68.187, 215.185 77.475, 218.890 84.847, 221.832 " fill="none" stroke="rgb(0, 0, 0)" stroke-linecap="butt" stroke-linejoin="round" stroke-opacity="1.0" stroke-width="3.0" />
            <path d=" M 84.847, 221.832 90.272, 213.431 95.696, 205.030 101.120, 196.629 104.824, 190.892 " fill="none" stroke="rgb(0, 0, 0)" stroke-linecap="butt" stroke-linejoin="round" stroke-opacity="1.0" stroke-width="3.0" />
            <path d=" M 119.089, 200.588 124.032, 191.896 128.975, 183.203 133.918, 174.510 138.861, 165.817 143.937, 156.892 150.463, 164.469 155.310, 170.097 164.406, 174.253 169.122, 176.409 " fill="none" stroke="rgb(0, 0, 0)" stroke-linecap="butt" stroke-linejoin="round" stroke-opacity="1.0" stroke-width="3.0" />
            <path d=" M 88.741, 184.478 98.029, 188.182 104.824, 190.892 113.094, 196.514 119.089, 200.588 113.294, 208.738 107.499, 216.888 101.704, 225.038 98.792, 229.133 " fill="none" stroke="rgb(0, 0, 0)" stroke-linecap="butt" stroke-linejoin="round" stroke-opacity="1.0" stroke-width="3.0" />
            <path d=" M 45.940, 251.006 55.781, 252.778 61.685, 253.842 " fill="none" stroke="rgb(0, 0, 0)" stroke-linecap="butt" stroke-linejoin="round" stroke-opacity="1.0" stroke-width="3.0" />
            <path d=" M 68.187, 215.185 62.911, 223.680 57.635, 232.175 52.359, 240.670 47.083, 249.165 45.940, 251.006 " fill="none" stroke="rgb(0, 0, 0)" stroke-linecap="butt" stroke-linejoin="round" stroke-opacity="1.0" stroke-width="3.0" />
            <path d=" M 74.447, 256.734 81.062, 249.234 87.677, 241.735 94.292, 234.235 98.792, 229.133 89.933, 224.494 84.847, 221.832 78.985, 229.933 73.123, 238.035 67.261, 246.136 61.685, 253.842 " fill="none" stroke="rgb(0, 0, 0)" stroke-linecap="butt" stroke-linejoin="round" stroke-opacity="1.0" stroke-width="3.0" />
            <path d=" M 35.864, 281.599 45.774, 280.261 52.691, 279.326 " fill="none" stroke="rgb(0, 0, 0)" stroke-linecap="butt" stroke-linejoin="round" stroke-opacity="1.0" stroke-width="3.0" />
            <path d=" M 13.028, 192.622 9.240, 201.877 5.451, 211.131 1.663, 220.386 -2.126, 229.641 -4.277, 234.895 5.245, 237.950 14.767, 241.005 24.289, 244.060 33.811, 247.114 43.333, 250.169 45.940, 251.006 42.812, 260.504 39.683, 270.002 36.555, 279.500 35.864, 281.599 " fill="none" stroke="rgb(0, 0, 0)" stroke-linecap="butt" stroke-linejoin="round" stroke-opacity="1.0" stroke-width="3.0" />
            <path d=" M 66.998, 278.835 70.192, 269.359 73.386, 259.883 74.447, 256.734 64.695, 254.524 61.685, 253.842 58.357, 263.272 55.029, 272.702 52.691, 279.326 " fill="none" stroke="rgb(0, 0, 0)" stroke-linecap="butt" stroke-linejoin="round" stroke-opacity="1.0" stroke-width="3.0" />
            <path d=" M 39.558, 309.060 48.770, 305.170 57.189, 301.614 " fill="none" stroke="rgb(0, 0, 0)" stroke-linecap="butt" stroke-linejoin="round" stroke-opacity="1.0" stroke-width="3.0" />
            <path d=" M 57.189, 301.614 55.211, 291.812 53.233, 282.009 52.691, 279.326 62.685, 278.983 66.998, 278.835 69.559, 288.502 71.216, 294.752 62.233, 299.147 57.189, 301.614 63.832, 309.089 70.475, 316.563 77.118, 324.038 81.596, 329.077 " fill="none" stroke="rgb(0, 0, 0)" stroke-linecap="butt" stroke-linejoin="round" stroke-opacity="1.0" stroke-width="3.0" />
            <path d=" M 59.025, 344.551 67.273, 338.897 75.520, 333.242 81.596, 329.077 88.933, 335.871 96.271, 342.665 103.608, 349.459 108.385, 353.882 " fill="none" stroke="rgb(0, 0, 0)" stroke-linecap="butt" stroke-linejoin="round" stroke-opacity="1.0" stroke-width="3.0" />
            <path d=" M 144.299, 385.263 152.737, 390.631 161.174, 395.999 169.611, 401.367 178.048, 406.735 186.485, 412.102 194.923, 417.470 197.795, 419.298 " fill="none" stroke="rgb(0, 0, 0)" stroke-linecap="butt" stroke-linejoin="round" stroke-opacity="1.0" stroke-width="3.0" />
            <path d=" M 197.795, 419.298 198.893, 409.358 199.990, 399.418 201.088, 389.479 201.942, 381.748 " fill="none" stroke="rgb(0, 0, 0)" stroke-linecap="butt" stroke-linejoin="round" stroke-opacity="1.0" stroke-width="3.0" />
            <path d=" M 108.385, 353.882 115.915, 360.462 123.445, 367.042 130.976, 373.622 138.506, 380.201 144.299, 385.263 " fill="none" stroke="rgb(0, 0, 0)" stroke-linecap="butt" stroke-linejoin="round" stroke-opacity="1.0" stroke-width="3.0" />
            <path d=" M 129.880, 416.462 134.076, 407.385 138.271, 398.307 142.466, 389.230 144.299, 385.263 147.285, 375.719 150.271, 366.176 153.256, 356.632 154.334, 353.187 " fill="none" stroke="rgb(0, 0, 0)" stroke-linecap="butt" stroke-linejoin="round" stroke-opacity="1.0" stroke-width="3.0" />
            <path d=" M 288.772, 452.795 286.599, 443.034 284.426, 433.272 282.253, 423.511 280.080, 413.750 278.776, 407.891 269.309, 404.670 259.842, 401.448 250.375, 398.227 240.908, 395.006 231.441, 391.785 221.974, 388.564 212.507, 385.343 203.040, 382.122 201.942, 381.748 193.367, 376.604 184.792, 371.459 176.216, 366.315 167.641, 361.170 159.066, 356.026 154.334, 353.187 146.372, 347.136 138.411, 341.085 130.449, 335.034 123.603, 329.831 118.256, 338.281 112.909, 346.732 108.385, 353.882 102.537, 361.994 96.689, 370.106 90.841, 378.218 89.518, 380.053 " fill="none" stroke="rgb(0, 0, 0)" stroke-linecap="butt" stroke-linejoin="round" stroke-opacity="1.0" stroke-width="3.0" />
            <path d=" M 424.663, 462.400 429.562, 471.118 434.461, 479.835 439.361, 488.553 444.260, 497.271 449.159, 505.989 453.645, 513.972 463.318, 511.433 472.990, 508.893 482.662, 506.353 492.334, 503.814 502.006, 501.274 511.678, 498.734 521.350, 496.195 531.023, 493.655 540.695, 491.115 550.367, 488.576 560.039, 486.036 569.711, 483.496 579.383, 480.957 589.055, 478.417 597.363, 476.236 " fill="none" stroke="rgb(0, 0, 0)" stroke-linecap="butt" stroke-linejoin="round" stroke-opacity="1.0" stroke-width="3.0" />
            <path d=" M 288.772, 452.795 290.741, 462.599 292.709, 472.403 294.678, 482.208 296.647, 492.012 298.278, 500.136 288.996, 496.416 279.713, 492.696 270.431, 488.975 261.149, 485.255 251.866, 481.535 242.584, 477.815 233.302, 474.095 224.020, 470.375 214.737, 466.654 205.455, 462.934 196.173, 459.214 193.441, 458.119 " fill="none" stroke="rgb(0, 0, 0)" stroke-linecap="butt" stroke-linejoin="round" stroke-opacity="1.0" stroke-width="3.0" />
            <path d=" M 546.486, 431.330 536.796, 433.801 527.107, 436.273 517.417, 438.744 507.727, 441.215 498.037, 443.687 488.347, 446.158 478.657, 448.629 468.968, 451.101 459.278, 453.572 449.588, 456.043 439.898, 458.514 430.208, 460.986 424.663, 462.400 414.688, 461.695 404.713, 460.990 394.738, 460.285 384.763, 459.580 374.788, 458.875 364.812, 458.169 354.837, 457.464 344.862, 456.759 334.887, 456.054 324.912, 455.349 314.937, 454.644 304.962, 453.939 294.987, 453.234 288.772, 452.795 279.388, 449.339 270.004, 445.884 260.620, 442.429 251.235, 438.974 241.851, 435.519 232.467, 432.064 223.083, 428.608 213.699, 425.153 204.315, 421.698 197.795, 419.298 196.680, 429.235 195.566, 439.173 194.451, 449.111 193.441, 458.119 " fill="none" stroke="rgb(0, 0, 0)" stroke-linecap="butt" stroke-linejoin="round" stroke-opacity="1.0" stroke-width="3.0" />
            <path d=" M 129.880, 416.462 138.244, 421.943 146.608, 427.425 154.972, 432.907 163.335, 438.388 171.699, 443.870 180.063, 449.351 188.427, 454.833 193.441, 458.119 190.035, 467.521 186.629, 476.923 183.223, 486.325 179.817, 495.727 178.816, 498.490 170.281, 493.278 161.747, 488.067 153.212, 482.855 144.677, 477.644 136.143, 472.432 127.608, 467.221 119.073, 462.009 110.539, 456.798 101.371, 451.200 " fill="none" stroke="rgb(0, 0, 0)" stroke-linecap="butt" stroke-linejoin="round" stroke-opacity="1.0" stroke-width="3.0" />
            <path d=" M 89.518, 380.053 96.944, 386.751 104.369, 393.449 111.794, 400.147 119.220, 406.845 126.645, 413.543 129.880, 416.462 123.536, 424.192 117.192, 431.922 110.848, 439.652 104.504, 447.382 101.371, 451.200 " fill="none" stroke="rgb(0, 0, 0)" stroke-linecap="butt" stroke-linejoin="round" stroke-opacity="1.0" stroke-width="3.0" />
            <path d=" M 59.025, 344.551 65.541, 352.137 72.056, 359.723 78.572, 367.309 85.088, 374.895 89.518, 380.053 81.821, 386.436 74.123, 392.820 66.426, 399.203 58.728, 405.587 53.269, 410.114 " fill="none" stroke="rgb(0, 0, 0)" stroke-linecap="butt" stroke-linejoin="round" stroke-opacity="1.0" stroke-width="3.0" />
            <path d=" M 39.558, 309.060 44.367, 317.828 49.176, 326.596 53.985, 335.363 58.794, 344.131 59.025, 344.551 50.318, 349.470 41.611, 354.388 32.904, 359.307 24.198, 364.225 21.107, 365.971 " fill="none" stroke="rgb(0, 0, 0)" stroke-linecap="butt" stroke-linejoin="round" stroke-opacity="1.0" stroke-width="3.0" />
            <path d=" M 139.453, 94.016 148.442, 98.397 157.432, 102.778 166.421, 107.159 175.551, 111.608 166.863, 116.559 158.175, 121.511 149.486, 126.462 140.798, 131.413 132.110, 136.364 123.421, 141.315 120.469, 142.997 " fill="none" stroke="rgb(0, 0, 0)" stroke-linecap="butt" stroke-linejoin="round" stroke-opacity="1.0" stroke-width="3.0" />
            <path d=" M 603.038, 239.980 594.495, 234.783 585.952, 229.585 577.409, 224.387 568.866, 219.190 560.323, 213.992 551.780, 208.795 543.236, 203.597 534.693, 198.400 526.150, 193.202 517.993, 188.240 526.912, 183.716 535.830, 179.192 544.748, 174.669 553.667, 170.145 557.680, 168.109 " fill="none" stroke="rgb(0, 0, 0)" stroke-linecap="butt" stroke-linejoin="round" stroke-opacity="1.0" stroke-width="3.0" />
            <path d=" M 557.680, 168.109 548.188, 164.962 538.696, 161.816 529.204, 158.669 519.712, 155.522 510.220, 152.375 500.728, 149.228 491.236, 146.081 481.744, 142.934 472.252, 139.787 462.760, 136.641 453.268, 133.494 443.776, 130.347 434.285, 127.200 424.793, 124.053 417.255, 121.554 " fill="none" stroke="rgb(0, 0, 0)" stroke-linecap="butt" stroke-linejoin="round" stroke-opacity="1.0" stroke-width="3.0" />
            <path d=" M 53.269, 410.114 60.873, 416.609 68.477, 423.104 76.081, 429.598 83.684, 436.093 91.288, 442.588 98.892, 449.082 101.371, 451.200 93.881, 457.826 86.391, 464.452 78.901, 471.077 71.412, 477.703 63.922, 484.329 59.690, 488.072 52.068, 481.599 44.446, 475.126 36.823, 468.653 29.201, 462.180 21.579, 455.707 13.956, 449.234 6.334, 442.761 4.445, 441.156 " fill="none" stroke="rgb(0, 0, 0)" stroke-linecap="butt" stroke-linejoin="round" stroke-opacity="1.0" stroke-width="3.0" />
            <path d=" M 21.107, 365.971 26.996, 374.053 32.884, 382.136 38.773, 390.218 44.662, 398.300 50.550, 406.383 53.269, 410.114 44.830, 415.480 36.391, 420.845 27.953, 426.210 19.514, 431.576 11.075, 436.941 4.445, 441.156 " fill="none" stroke="rgb(0, 0, 0)" stroke-linecap="butt" stroke-linejoin="round" stroke-opacity="1.0" stroke-width="3.0" />
            <path d=" M -9.333, 279.549 0.657, 280.002 10.647, 280.455 20.636, 280.908 30.626, 281.362 35.864, 281.599 37.197, 291.510 38.530, 301.421 39.558, 309.060 29.936, 311.784 20.314, 314.508 10.692, 317.231 1.070, 319.955 -2.981, 321.102 1.749, 329.912 6.479, 338.723 11.209, 347.534 15.939, 356.344 20.669, 365.155 21.107, 365.971 12.126, 370.369 3.145, 374.767 -5.836, 379.165 -14.817, 383.563 -23.798, 387.961 -32.779, 392.359 -34.056, 392.984 -27.813, 400.796 -21.570, 408.607 -15.326, 416.419 -9.083, 424.230 -2.840, 432.042 3.404, 439.854 4.445, 441.156 -4.105, 446.342 -12.655, 451.528 -21.206, 456.714 -29.756, 461.900 -38.306, 467.087 -46.856, 472.273 -55.406, 477.459 -59.795, 480.120 " fill="none" stroke="rgb(0, 0, 0)" stroke-linecap="butt" stroke-linejoin="round" stroke-opacity="1.0" stroke-width="3.0" />
            <path d=" M 34.805, 160.260 29.222, 168.556 23.639, 176.853 18.057, 185.149 13.028, 192.622 " fill="none" stroke="rgb(0, 0, 0)" stroke-linecap="butt" stroke-linejoin="round" stroke-opacity="1.0" stroke-width="3.0" />
            <path d=" M 88.741, 184.478 79.618, 180.381 70.496, 176.285 61.373, 172.189 52.251, 168.093 43.128, 163.997 34.805, 160.260 " fill="none" stroke="rgb(0, 0, 0)" stroke-linecap="butt" stroke-linejoin="round" stroke-opacity="1.0" stroke-width="3.0" />
            <path d=" M 68.297, 125.551 61.353, 132.747 54.409, 139.943 47.465, 147.139 40.522, 154.335 34.805, 160.260 25.539, 156.499 16.273, 152.738 7.007, 148.977 -2.258, 145.215 -11.524, 141.454 -20.790, 137.693 -28.490, 134.568 -21.110, 127.820 -13.731, 121.071 -6.351, 114.322 1.028, 107.574 7.297, 101.841 " fill="none" stroke="rgb(0, 0, 0)" stroke-linecap="butt" stroke-linejoin="round" stroke-opacity="1.0" stroke-width="3.0" />
            <path d=" M -51.839, 174.486 -42.208, 177.179 -32.578, 179.872 -22.947, 182.564 -13.316, 185.257 -3.686, 187.949 5.945, 190.642 13.028, 192.622 22.284, 196.408 31.539, 200.194 40.795, 203.980 50.051, 207.766 59.306, 211.552 68.187, 215.185 73.749, 206.875 79.312, 198.564 84.874, 190.254 88.741, 184.478 94.816, 176.535 100.892, 168.592 106.967, 160.649 113.043, 152.706 119.118, 144.763 120.469, 142.997 110.985, 139.826 101.502, 136.654 92.018, 133.483 82.534, 130.311 73.050, 127.140 68.297, 125.551 " fill="none" stroke="rgb(0, 0, 0)" stroke-linecap="butt" stroke-linejoin="round" stroke-opacity="1.0" stroke-width="3.0" />
            <path d=" M 508.319, 262.186 498.406, 263.505 496.574, 263.749 " fill="none" stroke="rgb(0, 0, 0)" stroke-linecap="butt" stroke-linejoin="round" stroke-opacity="1.0" stroke-width="3.0" />
            <path d=" M 507.647, 324.593 516.013, 319.115 524.379, 313.637 532.746, 308.159 539.481, 303.749 " fill="none" stroke="rgb(0, 0, 0)" stroke-linecap="butt" stroke-linejoin="round" stroke-opacity="1.0" stroke-width="3.0" />
            <path d=" M 582.523, 311.971 572.701, 310.095 562.878, 308.219 553.056, 306.342 543.233, 304.466 539.481, 303.749 529.788, 301.292 521.005, 299.066 " fill="none" stroke="rgb(0, 0, 0)" stroke-linecap="butt" stroke-linejoin="round" stroke-opacity="1.0" stroke-width="3.0" />
            <path d=" M 448.200, 348.007 457.504, 344.342 466.809, 340.677 476.113, 337.013 485.417, 333.348 494.722, 329.683 504.026, 326.019 507.647, 324.593 " fill="none" stroke="rgb(0, 0, 0)" stroke-linecap="butt" stroke-linejoin="round" stroke-opacity="1.0" stroke-width="3.0" />
            <path d=" M 561.071, 351.209 552.121, 346.750 543.170, 342.290 534.219, 337.831 525.269, 333.372 516.318, 328.913 507.647, 324.593 498.975, 319.613 493.712, 316.590 " fill="none" stroke="rgb(0, 0, 0)" stroke-linecap="butt" stroke-linejoin="round" stroke-opacity="1.0" stroke-width="3.0" />
            <path d=" M 438.395, 336.396 444.847, 344.036 448.200, 348.007 455.360, 354.987 462.520, 361.968 469.681, 368.949 476.841, 375.930 484.001, 382.911 491.161, 389.891 492.468, 391.166 " fill="none" stroke="rgb(0, 0, 0)" stroke-linecap="butt" stroke-linejoin="round" stroke-opacity="1.0" stroke-width="3.0" />
            <path d=" M 582.523, 311.971 576.112, 304.296 569.702, 296.621 563.292, 288.946 556.881, 281.271 550.471, 273.596 544.060, 265.921 537.650, 258.246 533.023, 252.706 " fill="none" stroke="rgb(0, 0, 0)" stroke-linecap="butt" stroke-linejoin="round" stroke-opacity="1.0" stroke-width="3.0" />
            <path d=" M 563.765, 245.303 554.043, 247.644 544.321, 249.986 534.599, 252.327 533.023, 252.706 523.687, 256.289 514.351, 259.871 508.319, 262.186 514.318, 270.187 520.316, 278.188 526.315, 286.189 532.314, 294.190 538.313, 302.191 539.481, 303.749 " fill="none" stroke="rgb(0, 0, 0)" stroke-linecap="butt" stroke-linejoin="round" stroke-opacity="1.0" stroke-width="3.0" />
            <path d=" M 626.580, 316.838 636.477, 318.275 646.373, 319.711 656.269, 321.148 666.165, 322.584 676.062, 324.021 679.296, 324.490 672.597, 317.066 665.898, 309.642 659.198, 302.217 652.499, 294.793 645.800, 287.369 639.101, 279.945 632.401, 272.520 625.702, 265.096 619.003, 257.672 612.303, 250.248 605.604, 242.823 603.038, 239.980 " fill="none" stroke="rgb(0, 0, 0)" stroke-linecap="butt" stroke-linejoin="round" stroke-opacity="1.0" stroke-width="3.0" />
            <path d=" M 602.618, 132.562 594.775, 138.766 586.932, 144.970 579.089, 151.174 571.246, 157.378 563.404, 163.582 557.680, 168.109 566.404, 172.997 575.128, 177.884 583.853, 182.772 592.577, 187.659 601.301, 192.547 610.025, 197.434 618.750, 202.322 627.474, 207.209 636.198, 212.097 644.922, 216.984 653.646, 221.872 662.371, 226.759 668.076, 229.955 658.192, 231.479 648.309, 233.002 638.426, 234.526 628.542, 236.049 618.659, 237.572 608.776, 239.096 603.038, 239.980 593.129, 241.323 583.220, 242.666 573.310, 244.009 563.765, 245.303 570.363, 252.817 576.961, 260.331 583.560, 267.846 590.158, 275.360 596.756, 282.874 603.354, 290.388 609.953, 297.902 616.551, 305.417 623.149, 312.931 626.580, 316.838 " fill="none" stroke="rgb(0, 0, 0)" stroke-linecap="butt" stroke-linejoin="round" stroke-opacity="1.0" stroke-width="3.0" />
            <path d=" M 617.208, 374.755 618.805, 364.883 620.403, 355.012 622.000, 345.140 623.598, 335.268 625.195, 325.397 626.580, 316.838 616.641, 315.740 606.701, 314.642 596.762, 313.544 586.822, 312.446 582.523, 311.971 577.726, 320.746 572.929, 329.520 568.132, 338.294 563.335, 347.069 561.071, 351.209 " fill="none" stroke="rgb(0, 0, 0)" stroke-linecap="butt" stroke-linejoin="round" stroke-opacity="1.0" stroke-width="3.0" />
            <path d=" M 546.486, 431.330 554.295, 425.083 562.104, 418.837 569.913, 412.590 577.721, 406.343 585.530, 400.096 593.339, 393.849 601.148, 387.602 608.956, 381.355 617.208, 374.755 " fill="none" stroke="rgb(0, 0, 0)" stroke-linecap="butt" stroke-linejoin="round" stroke-opacity="1.0" stroke-width="3.0" />
            <path d=" M 642.482, 523.576 635.582, 516.337 628.683, 509.098 621.784, 501.859 614.885, 494.620 607.986, 487.381 601.087, 480.142 597.363, 476.236 604.498, 469.229 611.633, 462.222 618.767, 455.215 625.902, 448.208 633.037, 441.201 640.171, 434.194 647.306, 427.187 654.440, 420.180 661.575, 413.173 668.710, 406.166 673.579, 401.384 664.537, 397.113 655.495, 392.842 646.453, 388.570 637.411, 384.299 628.370, 380.028 619.328, 375.756 617.208, 374.755 607.986, 370.887 598.764, 367.019 589.543, 363.151 580.321, 359.283 571.099, 355.415 561.878, 351.547 561.071, 351.209 552.430, 356.242 543.789, 361.275 535.148, 366.308 526.507, 371.341 517.866, 376.373 509.224, 381.406 500.583, 386.439 492.468, 391.166 500.493, 397.133 508.518, 403.099 516.543, 409.066 524.568, 415.033 532.592, 421.000 540.617, 426.966 546.486, 431.330 553.984, 437.948 561.481, 444.565 568.978, 451.182 576.476, 457.800 583.973, 464.417 591.470, 471.034 597.363, 476.236 " fill="none" stroke="rgb(0, 0, 0)" stroke-linecap="butt" stroke-linejoin="round" stroke-opacity="1.0" stroke-width="3.0" />
            <path d=" M 139.453, 94.016 149.452, 93.917 159.452, 93.817 169.451, 93.718 179.451, 93.619 189.451, 93.520 199.450, 93.421 209.450, 93.321 219.449, 93.222 229.449, 93.123 239.448, 93.024 249.448, 92.925 260.463, 92.815 " fill="none" stroke="rgb(0, 0, 0)" stroke-linecap="butt" stroke-linejoin="round" stroke-opacity="1.0" stroke-width="3.0" />
            <path d=" M 432.429, 87.826 428.327, 96.946 424.224, 106.065 420.121, 115.185 417.255, 121.554 407.419, 119.751 397.583, 117.948 387.747, 116.145 377.911, 114.343 368.075, 112.540 358.239, 110.737 348.402, 108.934 338.566, 107.131 328.730, 105.328 318.894, 103.525 309.058, 101.722 299.222, 99.919 289.386, 98.117 279.549, 96.314 269.713, 94.511 260.463, 92.815 255.827, 83.955 251.191, 75.095 246.555, 66.234 245.323, 63.879 " fill="none" stroke="rgb(0, 0, 0)" stroke-linecap="butt" stroke-linejoin="round" stroke-opacity="1.0" stroke-width="3.0" />
            <path d=" M 432.429, 87.826 422.510, 86.557 412.591, 85.287 402.672, 84.018 392.753, 82.748 382.834, 81.479 372.915, 80.209 362.996, 78.940 353.077, 77.670 343.158, 76.401 333.238, 75.131 323.319, 73.862 313.400, 72.592 303.481, 71.323 293.562, 70.053 283.643, 68.784 273.724, 67.514 263.805, 66.245 253.886, 64.975 245.323, 63.879 " fill="none" stroke="rgb(0, 0, 0)" stroke-linecap="butt" stroke-linejoin="round" stroke-opacity="1.0" stroke-width="3.0" />
            <path d=" M 602.618, 132.562 592.947, 130.020 583.275, 127.478 573.604, 124.936 563.932, 122.393 554.261, 119.851 544.590, 117.309 534.918, 114.767 525.247, 112.224 515.575, 109.682 505.904, 107.140 496.232, 104.598 486.561, 102.055 476.889, 99.513 467.218, 96.971 457.547, 94.428 447.875, 91.886 438.204, 89.344 432.429, 87.826 435.204, 78.219 437.978, 68.611 440.752, 59.004 443.526, 49.396 446.300, 39.789 449.074, 30.181 449.751, 27.836 " fill="none" stroke="rgb(0, 0, 0)" stroke-linecap="butt" stroke-linejoin="round" stroke-opacity="1.0" stroke-width="3.0" />
            <path d=" M 7.297, 101.841 16.618, 105.464 25.938, 109.086 35.259, 112.709 44.580, 116.332 53.901, 119.955 63.221, 123.578 68.297, 125.551 77.439, 121.499 86.582, 117.447 95.724, 113.396 104.866, 109.344 114.009, 105.292 123.151, 101.240 132.294, 97.189 139.453, 94.016 130.789, 89.022 122.125, 84.029 113.461, 79.035 104.797, 74.042 96.841, 69.456 " fill="none" stroke="rgb(0, 0, 0)" stroke-linecap="butt" stroke-linejoin="round" stroke-opacity="1.0" stroke-width="3.0" />
            <path d=" M 228.129, 11.570 231.252, 21.070 234.374, 30.570 237.497, 40.070 240.619, 49.570 243.742, 59.070 245.323, 63.879 235.330, 64.255 225.337, 64.630 215.344, 65.005 205.351, 65.381 195.358, 65.756 185.365, 66.131 175.372, 66.507 165.379, 66.882 155.386, 67.257 145.394, 67.633 135.401, 68.008 125.408, 68.383 115.415, 68.759 105.422, 69.134 96.841, 69.456 " fill="none" stroke="rgb(0, 0, 0)" stroke-linecap="butt" stroke-linejoin="round" stroke-opacity="1.0" stroke-width="3.0" />
            <path d=" M 228.129, 11.570 218.182, 12.595 208.234, 13.620 198.287, 14.646 188.340, 15.671 178.392, 16.696 168.445, 17.721 158.498, 18.747 148.550, 19.772 138.603, 20.797 128.656, 21.822 118.709, 22.848 108.761, 23.873 98.814, 24.898 88.867, 25.924 78.919, 26.949 68.972, 27.974 59.025, 28.999 49.077, 30.025 46.842, 30.255 " fill="none" stroke="rgb(0, 0, 0)" stroke-linecap="butt" stroke-linejoin="round" stroke-opacity="1.0" stroke-width="3.0" />
            <path d=" M -23.768, -42.319 -16.794, -35.152 -9.821, -27.984 -2.848, -20.817 4.126, -13.649 11.099, -6.482 18.073, 0.685 25.046, 7.853 32.019, 15.020 38.993, 22.188 45.966, 29.355 46.842, 30.255 37.390, 33.519 27.937, 36.783 18.485, 40.047 9.033, 43.311 -0.420, 46.575 -9.872, 49.839 -19.324, 53.103 -28.777, 56.367 -38.229, 59.631 -47.681, 62.895 -57.134, 66.160 -66.586, 69.424 -68.578, 70.112 -59.352, 73.970 -50.127, 77.828 -40.901, 81.686 -31.675, 85.544 -22.449, 89.402 -13.223, 93.260 -3.997, 97.118 5.228, 100.976 7.297, 101.841 16.701, 98.440 26.105, 95.039 35.509, 91.638 44.913, 88.237 54.317, 84.836 63.720, 81.435 73.124, 78.034 82.528, 74.633 91.932, 71.232 96.841, 69.456 88.971, 63.286 81.102, 57.116 73.232, 50.946 65.363, 44.776 57.493, 38.606 49.624, 32.436 46.842, 30.255 " fill="none" stroke="rgb(0, 0, 0)" stroke-linecap="butt" stroke-linejoin="round" stroke-opacity="1.0" stroke-width="3.0" />
            <path d=" M 736.168, 206.156 727.410, 201.330 718.652, 196.503 709.894, 191.677 701.135, 186.851 692.377, 182.024 683.619, 177.198 674.861, 172.372 666.102, 167.546 657.344, 162.719 648.586, 157.893 639.828, 153.067 631.069, 148.241 622.311, 143.414 613.553, 138.588 604.794, 133.762 602.618, 132.562 609.083, 124.934 615.549, 117.305 622.014, 109.676 628.479, 102.047 634.945, 94.418 641.410, 86.789 647.875, 79.160 650.380, 76.205 640.658, 73.861 630.937, 71.518 621.215, 69.174 611.494, 66.830 601.772, 64.486 592.051, 62.143 582.329, 59.799 572.608, 57.455 562.887, 55.111 553.165, 52.768 543.444, 50.424 533.722, 48.080 524.001, 45.737 514.279, 43.393 504.558, 41.049 494.836, 38.705 485.115, 36.362 475.393, 34.018 465.672, 31.674 455.950, 29.330 449.751, 27.836 " fill="none" stroke="rgb(0, 0, 0)" stroke-linecap="butt" stroke-linejoin="round" stroke-opacity="1.0" stroke-width="3.0" />
            <path d=" M 201.194, -78.742 204.052, -69.159 206.910, -59.576 209.768, -49.994 212.626, -40.411 215.484, -30.828 218.342, -21.245 221.200, -11.662 224.058, -2.079 226.916, 7.504 228.129, 11.570 238.102, 12.302 248.075, 13.034 258.048, 13.766 268.022, 14.498 277.995, 15.230 287.968, 15.962 297.941, 16.694 307.914, 17.426 317.887, 18.158 327.861, 18.890 337.834, 19.622 347.807, 20.354 357.780, 21.086 367.753, 21.818 377.727, 22.550 387.700, 23.282 397.673, 24.014 407.646, 24.746 417.619, 25.477 427.592, 26.209 437.566, 26.941 449.751, 27.836 452.204, 18.141 454.657, 8.447 457.110, -1.248 459.563, -10.942 462.016, -20.637 464.469, -30.331 466.922, -40.026 469.375, -49.720 471.828, -59.415 473.222, -64.925 " fill="none" stroke="rgb(0, 0, 0)" stroke-linecap="butt" stroke-linejoin="round" stroke-opacity="1.0" stroke-width="3.0" />
        </g>
    </g>
</svg>
